# File exported by Houdini 17.5.173 (www.sidefx.com)
# 240 points
# 240 vertices
# 60 primitives
# Bounds: [-13.4204197, 10.5313892, -14.7205324] to [8.62816429, 11.4801369, 17.5557804]
g 
v -13.4204197 11.4801369 17.5557785
v -13.4204197 11.4801369 15.8456764
v -12.8765192 11.4801369 15.8456764
v -12.8765192 11.4801369 17.5557785
v -13.4204197 11.4801369 15.4388561
v -13.4204197 11.4801369 13.7287521
v -12.8765192 11.4801369 13.7287521
v -12.8765192 11.4801369 15.4388561
v -13.4204197 11.4801369 13.3219309
v -13.4204197 11.4801369 11.6118279
v -12.8765192 11.4801369 11.6118279
v -12.8765192 11.4801369 13.3219309
v -13.4204197 11.4801369 8.77832603
v -13.4204197 11.4801369 7.06822252
v -12.8765192 11.4801369 7.06822252
v -12.8765192 11.4801369 8.77832603
v -13.4204197 11.4801369 6.66140127
v -13.4204197 11.4801369 4.95129824
v -12.8765192 11.4801369 4.95129824
v -12.8765192 11.4801369 6.66140127
v -13.4204197 11.4801369 4.54447937
v -13.4204197 11.4801369 2.83437586
v -12.8765192 11.4801369 2.83437586
v -12.8765192 11.4801369 4.54447937
v -13.4204197 11.4801369 0.000873760029
v -13.4204197 11.4801369 -1.70922959
v -12.8765192 11.4801369 -1.70922959
v -12.8765192 11.4801369 0.000873760029
v -13.4204197 11.4801369 -2.11605096
v -13.4204197 11.4801369 -3.82615447
v -12.8765192 11.4801369 -3.82615447
v -12.8765192 11.4801369 -2.11605096
v -13.4204197 11.4801369 -4.23297358
v -13.4204197 11.4801369 -5.94307661
v -12.8765192 11.4801369 -5.94307661
v -12.8765192 11.4801369 -4.23297358
v -13.4204197 11.4801369 -8.77658081
v -13.4204197 11.4801369 -10.4866848
v -12.8765192 11.4801369 -10.4866848
v -12.8765192 11.4801369 -8.77658081
v -13.4204197 11.4801369 -10.8935041
v -13.4204197 11.4801369 -12.6036062
v -12.8765192 11.4801369 -12.6036062
v -12.8765192 11.4801369 -10.8935041
v -13.4204197 11.4801369 -13.0104294
v -13.4204197 11.4801369 -14.7205324
v -12.8765192 11.4801369 -14.7205324
v -12.8765192 11.4801369 -13.0104294
v -7.1972909 11.3341293 17.5557804
v -7.1972909 11.3341293 15.8456774
v -6.65338993 11.3341293 15.8456774
v -6.65338993 11.3341293 17.5557804
v -7.1972909 11.3341293 15.4388561
v -7.1972909 11.3341293 13.7287521
v -6.65338993 11.3341293 13.7287521
v -6.65338993 11.3341293 15.4388561
v -7.1972909 11.3341293 13.3219337
v -7.1972909 11.3341293 11.6118307
v -6.65338993 11.3341293 11.6118307
v -6.65338993 11.3341293 13.3219337
v -7.1972909 11.3341293 6.66140127
v -7.1972909 11.3341293 4.95129824
v -6.65338993 11.3341293 4.95129824
v -6.65338993 11.3341293 6.66140127
v -7.1972909 11.3341293 4.54447937
v -7.1972909 11.3341293 2.83437586
v -6.65338993 11.3341293 2.83437586
v -6.65338993 11.3341293 4.54447937
v -7.1972909 11.3341293 8.77832603
v -7.1972909 11.3341293 7.06822252
v -6.65338993 11.3341293 7.06822252
v -6.65338993 11.3341293 8.77832603
v -7.1972909 11.3341293 -8.77658081
v -7.1972909 11.3341293 -10.4866848
v -6.65338993 11.3341293 -10.4866848
v -6.65338993 11.3341293 -8.77658081
v -7.1972909 11.3341293 -13.0104294
v -7.1972909 11.3341293 -14.7205324
v -6.65338993 11.3341293 -14.7205324
v -6.65338993 11.3341293 -13.0104294
v -7.1972909 11.3341293 -2.11605096
v -7.1972909 11.3341293 -3.82615447
v -6.65338993 11.3341293 -3.82615447
v -6.65338993 11.3341293 -2.11605096
v -7.1972909 11.3341293 0.000873760029
v -7.1972909 11.3341293 -1.70922959
v -6.65338993 11.3341293 -1.70922959
v -6.65338993 11.3341293 0.000873760029
v -7.1972909 11.3341293 -4.23297358
v -7.1972909 11.3341293 -5.94307661
v -6.65338993 11.3341293 -5.94307661
v -6.65338993 11.3341293 -4.23297358
v -7.1972909 11.3341293 -10.8935041
v -7.1972909 11.3341293 -12.6036062
v -6.65338993 11.3341293 -12.6036062
v -6.65338993 11.3341293 -10.8935041
v -3.80252981 11.3341293 17.5557804
v -3.80252981 11.3341293 15.8456774
v -3.25862694 11.3341293 15.8456774
v -3.25862694 11.3341293 17.5557804
v -3.80252981 11.3341293 15.4388561
v -3.80252981 11.3341293 13.7287521
v -3.25862694 11.3341293 13.7287521
v -3.25862694 11.3341293 15.4388561
v -3.80252981 11.3341293 13.3219337
v -3.80252981 11.3341293 11.6118307
v -3.25862694 11.3341293 11.6118307
v -3.25862694 11.3341293 13.3219337
v -3.80252981 11.3341293 8.77832603
v -3.80252981 11.3341293 7.06822252
v -3.25862694 11.3341293 7.06822252
v -3.25862694 11.3341293 8.77832603
v -3.80252981 11.3341293 6.66140127
v -3.80252981 11.3341293 4.95129824
v -3.25862694 11.3341293 4.95129824
v -3.25862694 11.3341293 6.66140127
v -3.80252981 11.3341293 4.54447937
v -3.80252981 11.3341293 2.83437586
v -3.25862694 11.3341293 2.83437586
v -3.25862694 11.3341293 4.54447937
v -3.80252981 11.3341293 0.000873760029
v -3.80252981 11.3341293 -1.70922959
v -3.25862694 11.3341293 -1.70922959
v -3.25862694 11.3341293 0.000873760029
v -3.80252981 11.3341293 -2.11605096
v -3.80252981 11.3341293 -3.82615447
v -3.25862694 11.3341293 -3.82615447
v -3.25862694 11.3341293 -2.11605096
v -3.80252981 11.3341293 -4.23297358
v -3.80252981 11.3341293 -5.94307661
v -3.25862694 11.3341293 -5.94307661
v -3.25862694 11.3341293 -4.23297358
v -3.80252981 11.3341293 -8.77658081
v -3.80252981 11.3341293 -10.4866848
v -3.25862694 11.3341293 -10.4866848
v -3.25862694 11.3341293 -8.77658081
v -3.80252981 11.3341293 -10.8935041
v -3.80252981 11.3341293 -12.6036062
v -3.25862694 11.3341293 -12.6036062
v -3.25862694 11.3341293 -10.8935041
v -3.80252981 11.3341293 -13.0104294
v -3.80252981 11.3341293 -14.7205324
v -3.25862694 11.3341293 -14.7205324
v -3.25862694 11.3341293 -13.0104294
v 1.94818258 11.3341293 17.5557804
v 1.94818258 11.3341293 15.8456774
v 2.49208546 11.3341293 15.8456774
v 2.49208546 11.3341293 17.5557804
v 1.94818258 11.3341293 15.4388561
v 1.94818258 11.3341293 13.7287521
v 2.49208546 11.3341293 13.7287521
v 2.49208546 11.3341293 15.4388561
v 1.94818258 11.3341293 13.3219337
v 1.94818258 11.3341293 11.6118307
v 2.49208546 11.3341293 11.6118307
v 2.49208546 11.3341293 13.3219337
v 1.94818258 11.3341293 8.77832603
v 1.94818258 11.3341293 7.06822252
v 2.49208546 11.3341293 7.06822252
v 2.49208546 11.3341293 8.77832603
v 1.94818258 11.3341293 6.66140127
v 1.94818258 11.3341293 4.95129824
v 2.49208546 11.3341293 4.95129824
v 2.49208546 11.3341293 6.66140127
v 1.94818258 11.3341293 4.54447937
v 1.94818258 11.3341293 2.83437586
v 2.49208546 11.3341293 2.83437586
v 2.49208546 11.3341293 4.54447937
v 1.94818258 11.3341293 0.000873760029
v 1.94818258 11.3341293 -1.70922959
v 2.49208546 11.3341293 -1.70922959
v 2.49208546 11.3341293 0.000873760029
v 1.94818258 11.3341293 -2.11605096
v 1.94818258 11.3341293 -3.82615447
v 2.49208546 11.3341293 -3.82615447
v 2.49208546 11.3341293 -2.11605096
v 1.94818258 11.3341293 -4.23297358
v 1.94818258 11.3341293 -5.94307661
v 2.49208546 11.3341293 -5.94307661
v 2.49208546 11.3341293 -4.23297358
v 1.94818258 11.3341293 -8.77658081
v 1.94818258 11.3341293 -10.4866848
v 2.49208546 11.3341293 -10.4866848
v 2.49208546 11.3341293 -8.77658081
v 1.94818258 11.3341293 -10.8935041
v 1.94818258 11.3341293 -12.6036062
v 2.49208546 11.3341293 -12.6036062
v 2.49208546 11.3341293 -10.8935041
v 1.94818258 11.3341293 -13.0104294
v 1.94818258 11.3341293 -14.7205324
v 2.49208546 11.3341293 -14.7205324
v 2.49208546 11.3341293 -13.0104294
v 8.08426189 10.5313892 -13.0104294
v 8.08426189 10.5313892 -14.7205324
v 8.62816429 10.5313892 -14.7205324
v 8.62816429 10.5313892 -13.0104294
v 8.08426189 10.5313892 -10.8935041
v 8.08426189 10.5313892 -12.6036062
v 8.62816429 10.5313892 -12.6036062
v 8.62816429 10.5313892 -10.8935041
v 8.08426189 10.5313892 -8.77658081
v 8.08426189 10.5313892 -10.4866848
v 8.62816429 10.5313892 -10.4866848
v 8.62816429 10.5313892 -8.77658081
v 8.08426189 10.5313892 -4.23297358
v 8.08426189 10.5313892 -5.94307661
v 8.62816429 10.5313892 -5.94307661
v 8.62816429 10.5313892 -4.23297358
v 8.08426189 10.5313892 -2.11605096
v 8.08426189 10.5313892 -3.82615447
v 8.62816429 10.5313892 -3.82615447
v 8.62816429 10.5313892 -2.11605096
v 8.08426189 10.5313892 0.000873760029
v 8.08426189 10.5313892 -1.70922959
v 8.62816429 10.5313892 -1.70922959
v 8.62816429 10.5313892 0.000873760029
v 8.08426189 10.5313892 4.54447937
v 8.08426189 10.5313892 2.83437586
v 8.62816429 10.5313892 2.83437586
v 8.62816429 10.5313892 4.54447937
v 8.08426189 10.5313892 6.66140127
v 8.08426189 10.5313892 4.95129824
v 8.62816429 10.5313892 4.95129824
v 8.62816429 10.5313892 6.66140127
v 8.08426189 10.5313892 8.77832603
v 8.08426189 10.5313892 7.06822252
v 8.62816429 10.5313892 7.06822252
v 8.62816429 10.5313892 8.77832603
v 8.08426189 10.5313892 13.3219337
v 8.08426189 10.5313892 11.6118307
v 8.62816429 10.5313892 11.6118307
v 8.62816429 10.5313892 13.3219337
v 8.08426189 10.5313892 15.4388561
v 8.08426189 10.5313892 13.7287521
v 8.62816429 10.5313892 13.7287521
v 8.62816429 10.5313892 15.4388561
v 8.08426189 10.5313892 17.5557804
v 8.08426189 10.5313892 15.8456774
v 8.62816429 10.5313892 15.8456774
v 8.62816429 10.5313892 17.5557804
vt 1 0 0
vt 1 1 0
vt 0 1 0
vt 0 0 0
vn 0 -1 -0
vn 0 -1 -0
vn 0 -1 -0
vn 0 -1 -0
vn 0 -1 -0
vn 0 -1 -0
vn 0 -1 -0
vn 0 -1 -0
vn 0 -1 -0
vn 0 -1 -0
vn 0 -1 -0
vn 0 -1 -0
vn 0 -0.99999994 -0
vn 0 -0.99999994 -0
vn 0 -0.99999994 -0
vn 0 -0.99999994 -0
vn 0 -1 -0
vn 0 -1 -0
vn 0 -1 -0
vn 0 -1 -0
vn 0 -0.99999994 -0
vn 0 -0.99999994 -0
vn 0 -0.99999994 -0
vn 0 -0.99999994 -0
vn 0 -1 -0
vn 0 -1 -0
vn 0 -1 -0
vn 0 -1 -0
vn 0 -0.99999994 -0
vn 0 -0.99999994 -0
vn 0 -0.99999994 -0
vn 0 -0.99999994 -0
vn 0 -1 -0
vn 0 -1 -0
vn 0 -1 -0
vn 0 -1 -0
vn 0 -1 -0
vn 0 -1 -0
vn 0 -1 -0
vn 0 -1 -0
vn 0 -1 -0
vn 0 -1 -0
vn 0 -1 -0
vn 0 -1 -0
vn 0 -1 -0
vn 0 -1 -0
vn 0 -1 -0
vn 0 -1 -0
vn 0 -1 -0
vn 0 -1 -0
vn 0 -1 -0
vn 0 -1 -0
vn 0 -1 -0
vn 0 -1 -0
vn 0 -1 -0
vn 0 -1 -0
vn 0 -1 -0
vn 0 -1 -0
vn 0 -1 -0
vn 0 -1 -0
vn 0 -1 -0
vn 0 -1 -0
vn 0 -1 -0
vn 0 -1 -0
vn 0 -0.99999994 -0
vn 0 -0.99999994 -0
vn 0 -0.99999994 -0
vn 0 -0.99999994 -0
vn 0 -0.99999994 -0
vn 0 -0.99999994 -0
vn 0 -0.99999994 -0
vn 0 -0.99999994 -0
vn 0 -1 -0
vn 0 -1 -0
vn 0 -1 -0
vn 0 -1 -0
vn 0 -1 -0
vn 0 -1 -0
vn 0 -1 -0
vn 0 -1 -0
vn 0 -0.99999994 -0
vn 0 -0.99999994 -0
vn 0 -0.99999994 -0
vn 0 -0.99999994 -0
vn 0 -1 -0
vn 0 -1 -0
vn 0 -1 -0
vn 0 -1 -0
vn 0 -1 -0
vn 0 -1 -0
vn 0 -1 -0
vn 0 -1 -0
vn 0 -1 -0
vn 0 -1 -0
vn 0 -1 -0
vn 0 -1 -0
vn 0 -0.99999994 -0
vn 0 -0.99999994 -0
vn 0 -0.99999994 -0
vn 0 -0.99999994 -0
vn 0 -1 -0
vn 0 -1 -0
vn 0 -1 -0
vn 0 -1 -0
vn 0 -0.99999994 -0
vn 0 -0.99999994 -0
vn 0 -0.99999994 -0
vn 0 -0.99999994 -0
vn 0 -1 -0
vn 0 -1 -0
vn 0 -1 -0
vn 0 -1 -0
vn 0 -0.99999994 -0
vn 0 -0.99999994 -0
vn 0 -0.99999994 -0
vn 0 -0.99999994 -0
vn 0 -1 -0
vn 0 -1 -0
vn 0 -1 -0
vn 0 -1 -0
vn 0 -1 -0
vn 0 -1 -0
vn 0 -1 -0
vn 0 -1 -0
vn 0 -1 -0
vn 0 -1 -0
vn 0 -1 -0
vn 0 -1 -0
vn 0 -0.99999994 -0
vn 0 -0.99999994 -0
vn 0 -0.99999994 -0
vn 0 -0.99999994 -0
vn 0 -1 -0
vn 0 -1 -0
vn 0 -1 -0
vn 0 -1 -0
vn 0 -1 -0
vn 0 -1 -0
vn 0 -1 -0
vn 0 -1 -0
vn 0 -0.99999994 -0
vn 0 -0.99999994 -0
vn 0 -0.99999994 -0
vn 0 -0.99999994 -0
vn 0 -0.99999994 -0
vn 0 -0.99999994 -0
vn 0 -0.99999994 -0
vn 0 -0.99999994 -0
vn 0 -1 -0
vn 0 -1 -0
vn 0 -1 -0
vn 0 -1 -0
vn 0 -0.99999994 -0
vn 0 -0.99999994 -0
vn 0 -0.99999994 -0
vn 0 -0.99999994 -0
vn 0 -1 -0
vn 0 -1 -0
vn 0 -1 -0
vn 0 -1 -0
vn 0 -0.99999994 -0
vn 0 -0.99999994 -0
vn 0 -0.99999994 -0
vn 0 -0.99999994 -0
vn 0 -1 -0
vn 0 -1 -0
vn 0 -1 -0
vn 0 -1 -0
vn 0 -1 -0
vn 0 -1 -0
vn 0 -1 -0
vn 0 -1 -0
vn 0 -1 -0
vn 0 -1 -0
vn 0 -1 -0
vn 0 -1 -0
vn 0 -0.99999994 -0
vn 0 -0.99999994 -0
vn 0 -0.99999994 -0
vn 0 -0.99999994 -0
vn 0 -1 -0
vn 0 -1 -0
vn 0 -1 -0
vn 0 -1 -0
vn 0 -1 -0
vn 0 -1 -0
vn 0 -1 -0
vn 0 -1 -0
vn 0 -0.99999994 -0
vn 0 -0.99999994 -0
vn 0 -0.99999994 -0
vn 0 -0.99999994 -0
vn 0 -1 -0
vn 0 -1 -0
vn 0 -1 -0
vn 0 -1 -0
vn 0 -1 -0
vn 0 -1 -0
vn 0 -1 -0
vn 0 -1 -0
vn 0 -0.99999994 -0
vn 0 -0.99999994 -0
vn 0 -0.99999994 -0
vn 0 -0.99999994 -0
vn 0 -1 -0
vn 0 -1 -0
vn 0 -1 -0
vn 0 -1 -0
vn 0 -1 -0
vn 0 -1 -0
vn 0 -1 -0
vn 0 -1 -0
vn 0 -1 -0
vn 0 -1 -0
vn 0 -1 -0
vn 0 -1 -0
vn 0 -1 -0
vn 0 -1 -0
vn 0 -1 -0
vn 0 -1 -0
vn 0 -1 -0
vn 0 -1 -0
vn 0 -1 -0
vn 0 -1 -0
vn 0 -1 -0
vn 0 -1 -0
vn 0 -1 -0
vn 0 -1 -0
vn 0 -1 -0
vn 0 -1 -0
vn 0 -1 -0
vn 0 -1 -0
vn 0 -0.99999994 -0
vn 0 -0.99999994 -0
vn 0 -0.99999994 -0
vn 0 -0.99999994 -0
vn 0 -1 -0
vn 0 -1 -0
vn 0 -1 -0
vn 0 -1 -0
g 
f 1/1/1 2/2/2 3/3/3 4/4/4
f 5/1/5 6/2/6 7/3/7 8/4/8
f 9/1/9 10/2/10 11/3/11 12/4/12
f 13/1/13 14/2/14 15/3/15 16/4/16
f 17/1/17 18/2/18 19/3/19 20/4/20
f 21/1/21 22/2/22 23/3/23 24/4/24
f 25/1/25 26/2/26 27/3/27 28/4/28
f 29/1/29 30/2/30 31/3/31 32/4/32
f 33/1/33 34/2/34 35/3/35 36/4/36
f 37/1/37 38/2/38 39/3/39 40/4/40
f 41/1/41 42/2/42 43/3/43 44/4/44
f 45/1/45 46/2/46 47/3/47 48/4/48
f 49/1/49 50/2/50 51/3/51 52/4/52
f 53/1/53 54/2/54 55/3/55 56/4/56
f 57/1/57 58/2/58 59/3/59 60/4/60
f 61/1/61 62/2/62 63/3/63 64/4/64
f 65/1/65 66/2/66 67/3/67 68/4/68
f 69/1/69 70/2/70 71/3/71 72/4/72
f 73/1/73 74/2/74 75/3/75 76/4/76
f 77/1/77 78/2/78 79/3/79 80/4/80
f 81/1/81 82/2/82 83/3/83 84/4/84
f 85/1/85 86/2/86 87/3/87 88/4/88
f 89/1/89 90/2/90 91/3/91 92/4/92
f 93/1/93 94/2/94 95/3/95 96/4/96
f 97/1/97 98/2/98 99/3/99 100/4/100
f 101/1/101 102/2/102 103/3/103 104/4/104
f 105/1/105 106/2/106 107/3/107 108/4/108
f 109/1/109 110/2/110 111/3/111 112/4/112
f 113/1/113 114/2/114 115/3/115 116/4/116
f 117/1/117 118/2/118 119/3/119 120/4/120
f 121/1/121 122/2/122 123/3/123 124/4/124
f 125/1/125 126/2/126 127/3/127 128/4/128
f 129/1/129 130/2/130 131/3/131 132/4/132
f 133/1/133 134/2/134 135/3/135 136/4/136
f 137/1/137 138/2/138 139/3/139 140/4/140
f 141/1/141 142/2/142 143/3/143 144/4/144
f 145/1/145 146/2/146 147/3/147 148/4/148
f 149/1/149 150/2/150 151/3/151 152/4/152
f 153/1/153 154/2/154 155/3/155 156/4/156
f 157/1/157 158/2/158 159/3/159 160/4/160
f 161/1/161 162/2/162 163/3/163 164/4/164
f 165/1/165 166/2/166 167/3/167 168/4/168
f 169/1/169 170/2/170 171/3/171 172/4/172
f 173/1/173 174/2/174 175/3/175 176/4/176
f 177/1/177 178/2/178 179/3/179 180/4/180
f 181/1/181 182/2/182 183/3/183 184/4/184
f 185/1/185 186/2/186 187/3/187 188/4/188
f 189/1/189 190/2/190 191/3/191 192/4/192
f 193/1/193 194/2/194 195/3/195 196/4/196
f 197/1/197 198/2/198 199/3/199 200/4/200
f 201/1/201 202/2/202 203/3/203 204/4/204
f 205/1/205 206/2/206 207/3/207 208/4/208
f 209/1/209 210/2/210 211/3/211 212/4/212
f 213/1/213 214/2/214 215/3/215 216/4/216
f 217/1/217 218/2/218 219/3/219 220/4/220
f 221/1/221 222/2/222 223/3/223 224/4/224
f 225/1/225 226/2/226 227/3/227 228/4/228
f 229/1/229 230/2/230 231/3/231 232/4/232
f 233/1/233 234/2/234 235/3/235 236/4/236
f 237/1/237 238/2/238 239/3/239 240/4/240
