# File exported by Houdini 17.5.173 (www.sidefx.com)
# 88 points
# 96 vertices
# 24 primitives
# Bounds: [-7.62566376, 0.0354634784, -19.2329445] to [7.37433577, 6.79010773, 19.3144588]
g 
v -1.50239575 1.94283831 17.9042149
v 1.52342749 1.94283831 17.9042149
v 1.52343249 1.93576705 17.9326782
v -1.50238562 1.93576705 17.9326782
v 1.52385664 0.0479374193 18.4260597
v -1.50155509 0.0479374193 18.4260597
v -1.50610423 1.94177914 16.9277744
v -1.50610423 1.94177914 17.9102345
v 1.52191114 1.94177914 17.9126053
v 1.52191114 1.94177914 16.9277744
v 1.52495408 1.94283831 16.9277744
v 1.52495408 1.94283831 17.9256878
v 1.52495408 0.0354634784 18.433691
v 1.52495408 0.0354634784 16.9277744
v -1.49573588 1.94283831 16.9364853
v -1.49573588 1.94283831 17.9344044
v -1.49573588 0.0354634784 18.4424038
v -1.49573588 0.0354634784 16.9364853
v -1.50610423 1.94177914 -16.8458729
v -1.50610423 1.94177914 -17.828331
v 1.52191114 1.94177914 -17.8307037
v 1.52191114 1.94177914 -16.8458691
v 1.52495408 1.94283831 -16.8636551
v 1.52495408 1.94283831 -17.8615723
v 1.52495408 0.0354634784 -18.3695717
v 1.52495408 0.0354634784 -16.8636551
v -1.50239575 1.94283831 -17.8400974
v 1.52342749 1.94283831 -17.8400974
v 1.52343249 1.93576705 -17.8685627
v -1.50238562 1.93576705 -17.8685627
v 1.52385664 0.0479374193 -18.3619404
v -1.50155509 0.0479374193 -18.3619404
v -1.48945701 1.94283831 -16.8636551
v -1.48945701 1.94283831 -17.8615723
v -1.48945701 0.0354634784 -18.3695717
v -1.48945701 0.0354634784 -16.863657
v -7.62566376 0.790107608 19.3144588
v -7.62566376 6.79010773 19.3144588
v 7.37433577 6.79010773 19.3144588
v 7.37433577 0.790107608 19.3144588
v -7.62566376 0.790107608 -19.2329445
v -7.62566376 6.79010773 -19.2329445
v 7.37433577 6.79010773 -19.2329445
v 7.37433577 0.790107608 -19.2329445
v -1.50239575 1.94283831 17.9042149
v 1.52342749 1.94283831 17.9042149
v 1.52343249 1.93576705 17.9326782
v -1.50238562 1.93576705 17.9326782
v 1.52385664 0.0479374193 18.4260597
v -1.50155509 0.0479374193 18.4260597
v -1.50610423 1.94177914 16.9277744
v -1.50610423 1.94177914 17.9102345
v 1.52191114 1.94177914 17.9126053
v 1.52191114 1.94177914 16.9277744
v 1.52495408 1.94283831 16.9277744
v 1.52495408 1.94283831 17.9256878
v 1.52495408 0.0354634784 18.433691
v 1.52495408 0.0354634784 16.9277744
v -1.49573588 1.94283831 16.9364853
v -1.49573588 1.94283831 17.9344044
v -1.49573588 0.0354634784 18.4424038
v -1.49573588 0.0354634784 16.9364853
v -1.50610423 1.94177914 -16.8458729
v -1.50610423 1.94177914 -17.828331
v 1.52191114 1.94177914 -17.8307037
v 1.52191114 1.94177914 -16.8458691
v 1.52495408 1.94283831 -16.8636551
v 1.52495408 1.94283831 -17.8615723
v 1.52495408 0.0354634784 -18.3695717
v 1.52495408 0.0354634784 -16.8636551
v -1.50239575 1.94283831 -17.8400974
v 1.52342749 1.94283831 -17.8400974
v 1.52343249 1.93576705 -17.8685627
v -1.50238562 1.93576705 -17.8685627
v 1.52385664 0.0479374193 -18.3619404
v -1.50155509 0.0479374193 -18.3619404
v -1.48945701 1.94283831 -16.8636551
v -1.48945701 1.94283831 -17.8615723
v -1.48945701 0.0354634784 -18.3695717
v -1.48945701 0.0354634784 -16.863657
v -7.62566376 0.790107608 19.3144588
v -7.62566376 6.79010773 19.3144588
v 7.37433577 6.79010773 19.3144588
v 7.37433577 0.790107608 19.3144588
v -7.62566376 0.790107608 -19.2329445
v -7.62566376 6.79010773 -19.2329445
v 7.37433577 6.79010773 -19.2329445
v 7.37433577 0.790107608 -19.2329445
vt -1.40740001 3.93799996 1.88929999
vt -1.40740001 -2.11360002 -2.07660007
vt -1.39320004 -2.11360002 -1273569.88
vt -1.39320004 3.93799996 -1273566.62
vt 2.38240004 -2.11450005 -23347288
vt 2.38240004 3.93630004 -23347278
vt -1.74290001 2.00589991 0
vt -1.74290001 0.0410000011 0
vt 4.31309986 0.0362999998 1
vt 4.31309986 2.00589991 1
vt -1.40740001 2.00589991 0
vt -1.40740001 0.0100999996 0
vt 2.40739989 -1.00590003 1
vt 2.40739989 2.00589991 1
vt 0 15 0.5
vt 0 0 0.5
vt 25 0 0.5
vt 25 15 0.5
vn 0 -0.970499098 -0.241104633
vn 0 -0.970499098 -0.241104633
vn 0 -0.970499098 -0.241104633
vn 0 -0.970499098 -0.241104633
vn 0 -0.252855748 -0.967503905
vn 0 -0.252855748 -0.967503905
vn 0 -0.252855748 -0.967503905
vn 0 -0.252855748 -0.967503905
vn 0 1 -0
vn 0 1 -0
vn 0 1 -0
vn 0 1 -0
vn 1 0 -0
vn 1 0 -0
vn 1 0 -0
vn 1 0 -0
vn 1 0 -0
vn 1 0 -0
vn 1 0 -0
vn 1 0 -0
vn 0 1 0
vn 0 1 0
vn 0 1 0
vn 0 1 0
vn 1 0 0
vn 1 0 0
vn 1 0 0
vn 1 0 0
vn 0 -0.970502913 0.241089419
vn 0 -0.970502913 0.241089419
vn 0 -0.970502913 0.241089419
vn 0 -0.970502913 0.241089419
vn 0 -0.2528539 0.967504442
vn 0 -0.2528539 0.967504442
vn 0 -0.2528539 0.967504442
vn 0 -0.2528539 0.967504442
vn -1 0 -0
vn -1 0 -0
vn -1 0 -0
vn -1 0 -0
vn 0 0 -1
vn 0 0 -1
vn 0 0 -1
vn 0 0 -1
vn 0 -0 1
vn 0 -0 1
vn 0 -0 1
vn 0 -0 1
vn 0 0.970499098 0.241104633
vn 0 0.970499098 0.241104633
vn 0 0.970499098 0.241104633
vn 0 0.970499098 0.241104633
vn 0 0.252855748 0.967503905
vn 0 0.252855748 0.967503905
vn 0 0.252855748 0.967503905
vn 0 0.252855748 0.967503905
vn 0 -1 0
vn 0 -1 0
vn 0 -1 0
vn 0 -1 0
vn -1 -0 0
vn -1 -0 0
vn -1 -0 0
vn -1 -0 0
vn -1 -0 0
vn -1 -0 0
vn -1 -0 0
vn -1 -0 0
vn -0 -1 0
vn -0 -1 0
vn -0 -1 0
vn -0 -1 0
vn -1 0 0
vn -1 0 0
vn -1 0 0
vn -1 0 0
vn 0 0.970502913 -0.241089419
vn 0 0.970502913 -0.241089419
vn 0 0.970502913 -0.241089419
vn 0 0.970502913 -0.241089419
vn 0 0.2528539 -0.967504442
vn 0 0.2528539 -0.967504442
vn 0 0.2528539 -0.967504442
vn 0 0.2528539 -0.967504442
vn 1 0 0
vn 1 0 0
vn 1 0 0
vn 1 0 0
vn -0 0 1
vn -0 0 1
vn -0 0 1
vn -0 0 1
vn -0 0 -1
vn -0 0 -1
vn -0 0 -1
vn -0 0 -1
g 
f 1/1/1 2/2/2 3/3/3 4/4/4
f 3/3/5 5/5/6 6/6/7 4/4/8
f 7/7/9 8/8/10 9/9/11 10/10/12
f 11/11/13 12/12/14 13/13/15 14/14/16
f 15/11/17 16/12/18 17/13/19 18/14/20
f 22/10/21 21/9/22 20/8/23 19/7/24
f 26/14/25 25/13/26 24/12/27 23/11/28
f 30/4/29 29/3/30 28/2/31 27/1/32
f 30/4/33 32/6/34 31/5/35 29/3/36
f 33/11/37 34/12/38 35/13/39 36/14/40
f 37/15/41 38/16/42 39/17/43 40/18/44
f 44/18/45 43/17/46 42/16/47 41/15/48
f 45/1/49 48/4/50 47/3/51 46/2/52
f 47/3/53 48/4/54 50/6/55 49/5/56
f 51/7/57 54/10/58 53/9/59 52/8/60
f 55/11/61 58/14/62 57/13/63 56/12/64
f 59/11/65 62/14/66 61/13/67 60/12/68
f 66/10/69 63/7/70 64/8/71 65/9/72
f 70/14/73 67/11/74 68/12/75 69/13/76
f 74/4/77 71/1/78 72/2/79 73/3/80
f 74/4/81 73/3/82 75/5/83 76/6/84
f 77/11/85 80/14/86 79/13/87 78/12/88
f 81/15/89 84/18/90 83/17/91 82/16/92
f 88/18/93 85/15/94 86/16/95 87/17/96
