# File exported by Houdini 17.5.173 (www.sidefx.com)
# 84 points
# 100 vertices
# 25 primitives
# Bounds: [-31.5229626, 4.22297573, -21.4111481] to [13.3621397, 12.9118052, 21.5234489]
g 
v 13.3621311 4.22298384 -20.4974499
v 13.3621311 4.22298384 -15.182292
v 11.588872 10.4929075 -15.1822853
v 11.588872 10.4929132 -20.4974442
v 13.3621311 4.22298384 -14.5463781
v 13.3621378 4.22298384 -9.2312212
v 11.5888748 10.4929075 -9.23121548
v 11.5888748 10.4929075 -14.5463743
v 13.3621311 4.22298098 -8.59530926
v 13.3621311 4.22298098 -3.28015089
v 11.588872 10.4929075 -3.28014588
v 11.588872 10.4929075 -8.59530354
v 13.3621311 4.22297859 -2.64423633
v 13.3621311 4.22297859 2.6709218
v 11.588872 10.4929028 2.67092443
v 11.588872 10.4929047 -2.64423394
v 11.588872 10.4929028 20.5241375
v 11.588872 10.4929028 15.2089767
v 13.3621378 4.22297573 15.2089739
v 13.3621397 4.22297573 20.5241337
v 11.5888748 10.4929028 14.5730639
v 11.5888748 10.4929047 9.25790405
v 13.3621397 4.22297859 9.25789833
v 13.3621397 4.22297859 14.5730591
v 11.588872 10.4929047 8.62199879
v 11.588872 10.4929075 3.30683613
v 13.3621378 4.22297859 3.30683112
v 13.3621397 4.22297859 8.62198639
v 7.86979389 10.7126579 -21.4111404
v 1.89692783 12.1124392 -21.4111366
v 2.10736942 5.00755692 -21.4111423
v 8.05204105 5.00755692 -21.4111366
v -13.5395317 12.1124392 -21.4111423
v -13.7499733 5.00755692 -21.4111423
v -8.46419144 5.00755692 -21.4111423
v -8.39404488 12.9118052 -21.4111404
v -3.24855852 12.9118052 -21.4111404
v -3.17841125 5.00755692 -21.4111423
v -15.9286757 11.5525274 -21.4111404
v -16.1278381 5.00755692 -21.4111481
v 7.86979389 10.7126579 21.5234394
v 1.89692783 12.1124392 21.5234356
v 2.10736942 5.00755405 21.5234413
v 8.05204105 5.00755405 21.5234356
v -13.5395317 12.1124392 21.5234413
v -13.7499733 5.00755405 21.5234394
v -8.46419144 5.00755405 21.5234413
v -8.39404488 12.9118032 21.5234413
v -3.24855852 12.9118032 21.5234413
v -3.17841125 5.00755405 21.5234413
v -15.9286757 11.5525274 21.5234394
v -16.1278381 5.00755405 21.5234489
v -24.1383209 10.6875505 14.2543983
v -24.1383209 10.6875505 21.027544
v -24.1383209 8.28732109 21.027544
v -24.1383209 8.28732109 14.2543983
v -24.1383209 10.6875505 8.91032696
v -24.1383209 10.6875505 12.6787853
v -24.1383209 8.28732109 12.6787853
v -24.1383209 8.28732109 8.91032696
v -24.1383209 10.6875505 -12.6473761
v -24.1383209 10.6875505 -8.87891769
v -24.1383209 8.28732109 -8.87891769
v -24.1383209 8.28732109 -12.6473761
v -24.1383209 10.6875505 -20.9956398
v -24.1383209 10.6875505 -14.2224932
v -24.1383209 8.28732109 -14.2224932
v -24.1383209 8.28732109 -20.9956398
v -24.7357044 10.6875477 -7.51488686
v -31.5088539 10.6875477 -7.51488686
v -31.5088539 8.28732109 -7.51488686
v -24.7357044 8.28731918 -7.51488686
v -24.7357044 10.6875477 7.38144779
v -31.5088539 10.6875477 7.38144779
v -31.5088539 8.28732109 7.38144779
v -24.7357044 8.28731918 7.38144779
v -31.5229626 10.6875477 0.0914603174
v -31.5229626 10.6875477 7.21768665
v -31.5229626 8.28732109 7.21768665
v -31.5229626 8.28732109 0.0914603174
v -31.5229626 10.6875477 -7.31890345
v -31.5229626 10.6875477 -0.192674235
v -31.5229626 8.28732109 -0.192674235
v -31.5229626 8.28732109 -7.31890345
vt 1 0.0487999991 0
vt 1 0.951200008 0
vt 0.143900007 0.86500001 0
vt 0.299299985 0.86500001 0
vt 0.293799996 0.103799999 0
vt 0.139200002 0.103799999 0
vt 0.700699985 0.86500001 0
vt 0.706200004 0.103799999 0
vt 0.568700016 0.103799999 0
vt 0.566900015 0.86500001 0
vt 0.433099985 0.86500001 0
vt 0.431300014 0.103799999 0
vt 0.762899995 0.86500001 0
vt 0.768100023 0.103799999 0
vt 0 1 0
vt 0 0 0
vt 1 0 0
vt 1 1 0
vn -0.962256312 -0.272145092 -1.51451943e-07
vn -0.962256312 -0.272145092 -1.51451943e-07
vn -0.962256312 -0.272145092 -1.51451943e-07
vn -0.962256312 -0.272145092 -1.51451943e-07
vn -0.962256193 -0.272145271 6.05808054e-07
vn -0.962256193 -0.272145271 6.05808054e-07
vn -0.962256193 -0.272145271 6.05808054e-07
vn -0.962256193 -0.272145271 6.05808054e-07
vn -0.962256193 -0.272145092 0
vn -0.962256193 -0.272145092 0
vn -0.962256193 -0.272145092 0
vn -0.962256193 -0.272145092 0
vn -0.962256193 -0.272145152 -5.50734427e-08
vn -0.962256193 -0.272145152 -5.50734427e-08
vn -0.962256193 -0.272145152 -5.50734427e-08
vn -0.962256193 -0.272145152 -5.50734427e-08
vn -0.962255895 -0.272146136 1.78988515e-07
vn -0.962255895 -0.272146136 1.78988515e-07
vn -0.962255895 -0.272146136 1.78988515e-07
vn -0.962255895 -0.272146136 1.78988515e-07
vn -0.962255955 -0.272145957 -4.13050572e-08
vn -0.962255955 -0.272145957 -4.13050572e-08
vn -0.962255955 -0.272145957 -4.13050572e-08
vn -0.962255955 -0.272145957 -4.13050572e-08
vn -0.962255895 -0.272146106 9.63784501e-08
vn -0.962255895 -0.272146106 9.63784501e-08
vn -0.962255895 -0.272146106 9.63784501e-08
vn -0.962255895 -0.272146106 9.63784501e-08
vn -1.78175668e-07 -1.54357437e-07 1
vn -2.93259347e-07 -3.37601705e-07 1
vn -2.93259347e-07 -3.37601705e-07 1
vn -1.78175668e-07 -1.54357437e-07 1
vn -3.38644412e-07 -2.44903958e-07 1
vn -3.38644412e-07 -2.44903958e-07 1
vn -8.43691694e-08 -1.84138116e-07 1
vn -8.43691694e-08 -1.84138116e-07 1
vn -2.93259347e-07 -3.37601705e-07 1
vn -2.93259347e-07 -3.37601705e-07 1
vn -1.97215343e-07 -3.749401e-07 1
vn -1.97215343e-07 -3.749401e-07 1
vn -1.97215343e-07 -3.749401e-07 1
vn -1.97215343e-07 -3.749401e-07 1
vn -8.43691694e-08 -1.84138116e-07 1
vn -8.43691694e-08 -1.84138116e-07 1
vn -3.38644412e-07 -2.44903958e-07 1
vn -3.38644412e-07 -2.44903958e-07 1
vn -7.3717672e-07 -5.36814809e-07 1
vn -7.3717672e-07 -5.36814809e-07 1
vn -1.78175668e-07 -1.54357366e-07 -1
vn -3.81126512e-07 -2.74834065e-07 -1
vn -3.81126512e-07 -2.74834065e-07 -1
vn -1.78175668e-07 -1.54357366e-07 -1
vn 8.43691979e-08 6.02687251e-08 -1
vn 8.43691979e-08 6.02687251e-08 -1
vn -3.28987625e-07 -6.27701056e-08 -0.99999994
vn -3.28987625e-07 -6.27701056e-08 -0.99999994
vn -2.81584505e-07 -1.9080197e-07 -1
vn -2.81584505e-07 -1.9080197e-07 -1
vn -3.81126512e-07 -2.74834065e-07 -1
vn -3.81126512e-07 -2.74834065e-07 -1
vn 8.43691979e-08 6.02687251e-08 -1
vn 8.43691979e-08 6.02687251e-08 -1
vn -2.81584505e-07 -1.9080197e-07 -1
vn -2.81584505e-07 -1.9080197e-07 -1
vn -1.54023598e-06 -5.12716497e-07 -1
vn -1.54023598e-06 -5.12716497e-07 -1
vn -3.28987625e-07 -6.27701056e-08 -0.99999994
vn -3.28987625e-07 -6.27701056e-08 -0.99999994
vn 1 0 -0
vn 1 0 -0
vn 1 0 -0
vn 1 0 -0
vn 1 0 -0
vn 1 0 -0
vn 1 0 -0
vn 1 0 -0
vn 1 0 -0
vn 1 0 -0
vn 1 0 -0
vn 1 0 -0
vn 1 0 -0
vn 1 0 -0
vn 1 0 -0
vn 1 0 -0
vn 0 0 1
vn 0 0 1
vn 0 0 1
vn 0 0 1
vn 0 0 1
vn 0 0 1
vn 0 0 1
vn 0 0 1
vn 1 0 -0
vn 1 0 -0
vn 1 0 -0
vn 1 0 -0
vn 1 0 -0
vn 1 0 -0
vn 1 0 -0
vn 1 0 -0
g 
f 1/1/1 2/1/2 3/2/3 4/2/4
f 5/1/5 6/1/6 7/2/7 8/2/8
f 9/1/9 10/1/10 11/2/11 12/2/12
f 13/1/13 14/1/14 15/2/15 16/2/16
f 17/2/17 18/2/18 19/1/19 20/1/20
f 21/2/21 22/2/22 23/1/23 24/1/24
f 25/2/25 26/2/26 27/1/27 28/1/28
f 29/3/29 30/4/30 31/5/31 32/6/32
f 33/7/33 34/8/34 35/9/35 36/10/36
f 31/5/37 30/4/38 37/11/39 38/12/40
f 38/12/41 37/11/42 36/10/43 35/9/44
f 34/8/45 33/7/46 39/13/47 40/14/48
f 44/6/49 43/5/50 42/4/51 41/3/52
f 48/10/53 47/9/54 46/8/55 45/7/56
f 50/12/57 49/11/58 42/4/59 43/5/60
f 47/9/61 48/10/62 49/11/63 50/12/64
f 52/14/65 51/13/66 45/7/67 46/8/68
f 53/15/69 54/16/70 55/17/71 56/18/72
f 57/15/73 58/16/74 59/17/75 60/18/76
f 61/15/77 62/16/78 63/17/79 64/18/80
f 65/15/81 66/16/82 67/17/83 68/18/84
f 69/15/85 70/16/86 71/17/87 72/18/88
f 73/15/89 74/16/90 75/17/91 76/18/92
f 77/15/93 78/16/94 79/17/95 80/18/96
f 81/15/97 82/16/98 83/17/99 84/18/100
